<svg version="1.1" xmlns="http://www.w3.org/2000/svg" xmlns:xlink="http://www.w3.org/1999/xlink" width="20" height="20" viewBox="0,0,20,20"><g transform="translate(-230,-170)"><g stroke-miterlimit="10"><path d="M231,180c0,-4.97056 4.02944,-9 9,-9c4.97056,0 9,4.02944 9,9c0,4.97056 -4.02944,9 -9,9c-4.97056,0 -9,-4.02944 -9,-9z" fill="#cd07f5" fill-rule="evenodd" stroke="#bb00d4" stroke-width="2"/><path d="M239.16667,177.5431l1.65114,2.76269l0.8345,-1.26843l1.01875,1.5485c0.08281,-0.13239 0.13068,-0.28887 0.13068,-0.45654v-1.73687c-0.08986,0.00843 -0.18092,0.01273 -0.27299,0.01273c-1.52247,0 -2.76977,-1.17811 -2.88001,-2.67241h-1.58838c-0.47611,0 -0.86207,0.38596 -0.86207,0.86207v3.35278zM237.15517,185c-0.47611,0 -0.86207,-0.38596 -0.86207,-0.86207v-8.27586c0,-0.47611 0.38596,-0.86207 0.86207,-0.86207h5.68966c0.47611,0 0.86207,0.38596 0.86207,0.86207v8.27586c0,0.47611 -0.38596,0.86207 -0.86207,0.86207z" fill="#ffffff" fill-rule="nonzero" stroke="none" stroke-width="0"/></g></g></svg>
